<svg width="513" height="513" viewBox="0 0 513 513" fill="none" xmlns="http://www.w3.org/2000/svg">
<g clip-path="url(#clip0)">
<path d="M52.004 423.996C25.532 423.996 4.00403 445.524 4.00403 471.996C4.00403 476.42 7.58003 479.996 12.004 479.996C16.428 479.996 20.004 476.42 20.004 471.996C20.004 454.348 34.356 439.996 52.004 439.996C56.428 439.996 60.004 436.42 60.004 431.996C60.004 427.572 56.428 423.996 52.004 423.996Z" fill="black"/>
<path d="M76.004 423.996H52.004C47.58 423.996 44.004 427.572 44.004 431.996C44.004 436.42 47.58 439.996 52.004 439.996H76.004C80.428 439.996 84.004 436.42 84.004 431.996C84.004 427.572 80.428 423.996 76.004 423.996Z" fill="black"/>
<path d="M12.004 463.996C7.58003 463.996 4.00403 467.572 4.00403 471.996V495.996C4.00403 500.42 7.58003 503.996 12.004 503.996C16.428 503.996 20.004 500.42 20.004 495.996V471.996C20.004 467.572 16.428 463.996 12.004 463.996Z" fill="black"/>
<path d="M20.004 495.988C19.524 491.78 16.116 488.244 11.588 488.452C7.34803 488.684 4.00403 491.748 4.00403 495.996C4.00403 504.82 11.18 511.996 20.004 511.996C24.428 511.996 28.004 508.412 28.004 503.988C28.004 499.572 24.42 495.988 20.004 495.988Z" fill="black"/>
<path d="M164.004 423.996C159.58 423.996 156.004 427.572 156.004 431.996C156.004 436.42 159.58 439.996 164.004 439.996C181.652 439.996 196.004 454.348 196.004 471.996C196.004 476.42 199.58 479.996 204.004 479.996C208.428 479.996 212.004 476.42 212.004 471.996C212.004 445.524 190.476 423.996 164.004 423.996Z" fill="black"/>
<path d="M164.004 423.996H140.004C135.58 423.996 132.004 427.572 132.004 431.996C132.004 436.42 135.58 439.996 140.004 439.996H164.004C168.428 439.996 172.004 436.42 172.004 431.996C172.004 427.572 168.428 423.996 164.004 423.996Z" fill="black"/>
<path d="M204.004 463.996C199.58 463.996 196.004 467.572 196.004 471.996V495.996C196.004 500.42 199.58 503.996 204.004 503.996C208.428 503.996 212.004 500.42 212.004 495.996V471.996C212.004 467.572 208.428 463.996 204.004 463.996Z" fill="black"/>
<path d="M204.004 487.996C199.58 487.996 196.004 491.572 196.004 495.996C191.58 495.996 188.004 499.572 188.004 503.996C188.004 508.42 191.58 511.996 196.004 511.996C204.828 511.996 212.004 504.82 212.004 495.996C212.004 491.572 208.428 487.996 204.004 487.996Z" fill="black"/>
<path d="M196.004 495.996H20.004C15.58 495.996 12.004 499.572 12.004 503.996C12.004 508.42 15.58 511.996 20.004 511.996H196.004C200.428 511.996 204.004 508.42 204.004 503.996C204.004 499.572 200.428 495.996 196.004 495.996Z" fill="black"/>
<path d="M76.004 392.508C71.58 392.508 68.004 396.084 68.004 400.508V431.996C68.004 436.42 71.58 439.996 76.004 439.996C80.428 439.996 84.004 436.42 84.004 431.996V400.508C84.004 396.084 80.428 392.508 76.004 392.508Z" fill="black"/>
<path d="M140.004 392.508C135.58 392.508 132.004 396.084 132.004 400.508V431.996C132.004 436.42 135.58 439.996 140.004 439.996C144.428 439.996 148.004 436.42 148.004 431.996V400.508C148.004 396.084 144.428 392.508 140.004 392.508Z" fill="black"/>
<path d="M180.004 328.012C175.58 328.012 172.004 331.588 172.004 336.012C172.004 371.292 143.292 399.996 107.996 399.996C72.708 399.996 44.004 371.292 44.004 336.012C44.004 331.588 40.428 328.012 36.004 328.012C31.58 328.012 28.004 331.588 28.004 336.012C28.004 380.116 63.884 415.996 107.996 415.996C152.116 415.996 188.004 380.116 188.004 336.012C188.004 331.588 184.428 328.012 180.004 328.012Z" fill="black"/>
<path d="M36.004 295.996C31.58 295.996 28.004 299.572 28.004 303.996V336.404C28.004 340.828 31.58 344.404 36.004 344.404C40.428 344.404 44.004 340.828 44.004 336.404V303.996C44.004 299.572 40.428 295.996 36.004 295.996Z" fill="black"/>
<path d="M180.004 295.996C175.58 295.996 172.004 299.572 172.004 303.996V336.012C172.004 340.436 175.58 344.012 180.004 344.012C184.428 344.012 188.004 340.436 188.004 336.012V303.996C188.004 299.572 184.428 295.996 180.004 295.996Z" fill="black"/>
<path d="M95.588 432.844L79.588 424.844C75.636 422.884 70.836 424.468 68.852 428.42C66.876 432.372 68.476 437.18 72.428 439.156L88.428 447.156C89.572 447.724 90.796 447.996 91.996 447.996C94.932 447.996 97.756 446.38 99.164 443.58C101.14 439.628 99.54 434.82 95.588 432.844Z" fill="black"/>
<path d="M115.156 428.412C113.172 424.46 108.372 422.876 104.42 424.836L88.42 432.836C84.468 434.812 82.868 439.62 84.844 443.572C86.252 446.38 89.076 447.996 92.012 447.996C93.212 447.996 94.436 447.724 95.58 447.148L111.58 439.148C115.532 437.172 117.132 432.364 115.156 428.412Z" fill="black"/>
<path d="M147.157 428.412C145.173 424.46 140.365 422.876 136.421 424.836L120.421 432.836C116.469 434.812 114.869 439.62 116.845 443.572C118.253 446.38 121.077 447.996 124.013 447.996C125.213 447.996 126.437 447.724 127.581 447.148L143.581 439.148C147.532 437.172 149.132 432.364 147.157 428.412Z" fill="black"/>
<path d="M127.588 432.844L111.588 424.844C107.628 422.884 102.836 424.468 100.852 428.42C98.876 432.372 100.476 437.18 104.428 439.156L120.428 447.156C121.572 447.724 122.796 447.996 123.996 447.996C126.932 447.996 129.756 446.38 131.164 443.58C133.14 439.628 131.54 434.82 127.588 432.844Z" fill="black"/>
<path d="M155.996 343.996C151.572 343.996 147.996 347.572 147.996 351.996C147.996 360.82 140.828 367.996 132.004 367.996C127.58 367.996 124.004 371.572 124.004 375.996C124.004 380.42 127.58 383.996 132.004 383.996C149.644 383.996 163.996 369.644 163.996 351.996C163.996 347.572 160.42 343.996 155.996 343.996Z" fill="black"/>
<path d="M155.996 328.012C151.572 328.012 147.996 331.588 147.996 336.012C147.996 340.42 144.412 343.996 139.996 343.996C135.572 343.996 131.996 347.572 131.996 351.996C131.996 356.42 135.572 359.996 139.996 359.996C153.228 359.996 163.996 349.236 163.996 336.012C163.996 331.588 160.42 328.012 155.996 328.012Z" fill="black"/>
<path d="M139.996 343.996H120.004C115.58 343.996 112.004 347.572 112.004 351.996C112.004 356.42 115.58 359.996 120.004 359.996H139.996C144.42 359.996 147.996 356.42 147.996 351.996C147.996 347.572 144.42 343.996 139.996 343.996Z" fill="black"/>
<path d="M131.748 367.996H120.004C115.58 367.996 112.004 371.572 112.004 375.996C112.004 380.42 115.58 383.996 120.004 383.996H131.748C136.172 383.996 139.748 380.42 139.748 375.996C139.748 371.572 136.173 367.996 131.748 367.996Z" fill="black"/>
<path d="M120.004 367.996C117.804 367.996 116.004 366.196 116.004 363.996C116.004 361.796 117.804 359.996 120.004 359.996C124.428 359.996 128.004 356.42 128.004 351.996C128.004 347.572 124.428 343.996 120.004 343.996C108.972 343.996 100.004 352.964 100.004 363.996C100.004 375.028 108.972 383.996 120.004 383.996C124.428 383.996 128.004 380.42 128.004 375.996C128.004 371.572 124.428 367.996 120.004 367.996Z" fill="black"/>
<path d="M156.004 327.996C151.58 327.996 148.004 331.572 148.004 335.996V351.996C148.004 356.42 151.58 359.996 156.004 359.996C160.428 359.996 164.004 356.42 164.004 351.996V335.996C164.004 331.572 160.428 327.996 156.004 327.996Z" fill="black"/>
<path d="M84.004 367.996C75.18 367.996 68.012 360.82 68.012 351.996C68.012 347.572 64.436 343.996 60.012 343.996C55.588 343.996 52.012 347.572 52.012 351.996C52.012 369.644 66.364 383.996 84.004 383.996C88.428 383.996 92.004 380.42 92.004 375.996C92.004 371.572 88.428 367.996 84.004 367.996Z" fill="black"/>
<path d="M76.012 343.996C71.596 343.996 68.012 340.42 68.012 336.012C68.012 331.588 64.436 328.012 60.012 328.012C55.588 328.012 52.012 331.588 52.012 336.012C52.012 349.236 62.78 359.996 76.012 359.996C80.436 359.996 84.012 356.42 84.012 351.996C84.012 347.572 80.436 343.996 76.012 343.996Z" fill="black"/>
<path d="M96.004 343.996H76.012C71.588 343.996 68.012 347.572 68.012 351.996C68.012 356.42 71.588 359.996 76.012 359.996H96.004C100.428 359.996 104.004 356.42 104.004 351.996C104.004 347.572 100.428 343.996 96.004 343.996Z" fill="black"/>
<path d="M96.004 367.996H84.26C79.836 367.996 76.26 371.572 76.26 375.996C76.26 380.42 79.836 383.996 84.26 383.996H96.004C100.428 383.996 104.004 380.42 104.004 375.996C104.004 371.572 100.428 367.996 96.004 367.996Z" fill="black"/>
<path d="M96.004 343.996C91.58 343.996 88.004 347.572 88.004 351.996C88.004 356.42 91.58 359.996 96.004 359.996C98.204 359.996 100.004 361.796 100.004 363.996C100.004 366.196 98.204 367.996 96.004 367.996C91.58 367.996 88.004 371.572 88.004 375.996C88.004 380.42 91.58 383.996 96.004 383.996C107.036 383.996 116.004 375.028 116.004 363.996C116.004 352.964 107.036 343.996 96.004 343.996Z" fill="black"/>
<path d="M60.004 327.996C55.58 327.996 52.004 331.572 52.004 335.996V351.996C52.004 356.42 55.58 359.996 60.004 359.996C64.428 359.996 68.004 356.42 68.004 351.996V335.996C68.004 331.572 64.428 327.996 60.004 327.996Z" fill="black"/>
<path d="M188.004 271.996H28.004C23.58 271.996 20.004 275.572 20.004 279.996V303.996C20.004 308.42 23.58 311.996 28.004 311.996H188.004C192.428 311.996 196.004 308.42 196.004 303.996V279.996C196.004 275.572 192.428 271.996 188.004 271.996ZM180.004 295.996H36.004V287.996H180.004V295.996Z" fill="black"/>
<path d="M125.748 201.972C121.436 201.02 117.156 203.7 116.18 208.012C115.204 212.316 117.908 216.604 122.22 217.58C151.068 224.116 172.004 250.364 172.004 279.996C172.004 284.42 175.58 287.996 180.004 287.996C184.428 287.996 188.004 284.42 187.996 279.996C187.996 242.364 162.404 210.276 125.748 201.972Z" fill="black"/>
<path d="M99.804 208.028C98.828 203.716 94.524 201.028 90.236 201.988C53.596 210.292 28.004 242.372 28.004 279.996C28.004 284.42 31.58 287.996 36.004 287.996C40.428 287.996 44.004 284.42 43.996 279.996C43.996 249.892 64.468 224.228 93.764 217.596C98.076 216.62 100.78 212.332 99.804 208.028Z" fill="black"/>
<path d="M92.004 193.62C87.58 193.62 84.004 197.196 84.004 201.62V239.996C84.004 244.42 87.58 247.996 92.004 247.996C96.428 247.996 100.004 244.42 100.004 239.996V201.62C100.004 197.196 96.428 193.62 92.004 193.62Z" fill="black"/>
<path d="M125.588 193.74C114.092 191.404 101.892 191.404 90.268 193.78C85.94 194.668 83.156 198.884 84.036 203.22C84.812 207.012 88.14 209.62 91.868 209.62C92.404 209.62 92.94 209.564 93.468 209.452C102.972 207.516 112.996 207.524 122.412 209.428C126.74 210.332 130.964 207.5 131.844 203.172C132.724 198.844 129.916 194.62 125.588 193.74Z" fill="black"/>
<path d="M95.988 433.508C92.86 430.38 87.804 430.38 84.676 433.508L19.844 498.34C16.716 501.468 16.716 506.524 19.844 509.652C21.404 511.212 23.452 511.996 25.5 511.996C27.54 511.996 29.588 511.212 31.156 509.652L95.988 444.82C99.116 441.692 99.116 436.636 95.988 433.508Z" fill="black"/>
<path d="M188.804 431.196C185.676 428.068 180.62 428.068 177.492 431.196L110.348 498.34C107.22 501.468 107.22 506.524 110.348 509.652C111.908 511.212 113.956 511.996 116.004 511.996C118.052 511.996 120.1 511.212 121.66 509.652L188.804 442.508C191.933 439.38 191.932 434.324 188.804 431.196Z" fill="black"/>
<path d="M196.149 498.324L131.333 433.508C128.205 430.38 123.149 430.38 120.021 433.508C116.893 436.636 116.893 441.692 120.021 444.82L184.837 509.636C186.397 511.196 188.445 511.98 190.493 511.98C192.533 511.98 194.581 511.196 196.149 509.636C199.277 506.508 199.277 501.452 196.149 498.324Z" fill="black"/>
<path d="M105.676 498.356L38.524 431.212C35.396 428.084 30.34 428.084 27.212 431.212C24.084 434.34 24.084 439.396 27.212 442.524L94.364 509.668C95.924 511.228 97.972 512.012 100.02 512.012C102.068 512.012 104.116 511.228 105.676 509.668C108.804 506.54 108.804 501.484 105.676 498.356Z" fill="black"/>
<path d="M124.012 193.588C119.588 193.588 116.012 197.164 116.012 201.588V239.996C116.012 244.42 119.588 247.996 124.012 247.996C128.436 247.996 132.012 244.42 132.012 239.996V201.588C132.012 197.164 128.436 193.588 124.012 193.588Z" fill="black"/>
<path d="M298.812 3.81201C296.5 0.0440056 291.58 -1.13199 287.804 1.19601L79.804 129.196C76.044 131.508 74.876 136.436 77.188 140.204C78.7 142.66 81.324 144.012 84.012 144.012C85.444 144.012 86.884 143.628 88.196 142.82L296.196 14.82C299.957 12.508 301.124 7.58001 298.812 3.81201Z" fill="black"/>
<path d="M504.204 129.204L296.204 1.204C292.42 -1.124 287.508 0.052001 285.196 3.82C282.884 7.588 284.052 12.516 287.812 14.828L495.812 142.828C497.124 143.628 498.564 144.012 499.996 144.012C502.684 144.012 505.308 142.66 506.82 140.212C509.133 136.444 507.965 131.516 504.204 129.204Z" fill="black"/>
<path d="M298.812 35.812C296.5 32.052 291.58 30.868 287.804 33.196L79.804 161.196C76.044 163.508 74.876 168.436 77.188 172.204C78.7 174.66 81.324 176.012 84.012 176.012C85.444 176.012 86.884 175.628 88.196 174.82L296.196 46.82C299.957 44.508 301.124 39.58 298.812 35.812Z" fill="black"/>
<path d="M504.204 161.204L296.204 33.204C292.42 30.876 287.508 32.06 285.196 35.82C282.884 39.588 284.052 44.516 287.812 46.828L495.812 174.828C497.124 175.628 498.564 176.012 499.996 176.012C502.684 176.012 505.308 174.66 506.82 172.212C509.133 168.444 507.965 163.516 504.204 161.204Z" fill="black"/>
<path d="M84.004 128.012C79.58 128.012 76.004 131.588 76.004 136.012V168.012C76.004 172.436 79.58 176.012 84.004 176.012C88.428 176.012 92.004 172.436 92.004 168.012V136.012C92.004 131.588 88.428 128.012 84.004 128.012Z" fill="black"/>
<path d="M500.004 128.012C495.58 128.012 492.004 131.588 492.004 136.012V168.012C492.004 172.436 495.58 176.012 500.004 176.012C504.428 176.012 508.004 172.436 508.004 168.012V136.012C508.004 131.588 504.428 128.012 500.004 128.012Z" fill="black"/>
<path d="M108.004 145.244C103.58 145.244 100.004 148.82 100.004 153.244V199.996C100.004 204.42 103.58 207.996 108.004 207.996C112.428 207.996 116.004 204.42 116.004 199.996V153.244C116.004 148.82 112.428 145.244 108.004 145.244Z" fill="black"/>
<path d="M476.004 145.244C471.58 145.244 468.004 148.82 468.004 153.244V384.012C468.004 388.436 471.58 392.012 476.004 392.012C480.428 392.012 484.004 388.436 484.004 384.012V153.244C484.004 148.82 480.428 145.244 476.004 145.244Z" fill="black"/>
<path d="M476.004 376.012H161.652C157.228 376.012 153.652 379.588 153.652 384.012C153.652 388.436 157.228 392.012 161.652 392.012H476.004C480.428 392.012 484.004 388.436 484.004 384.012C484.004 379.588 480.428 376.012 476.004 376.012Z" fill="black"/>
<path d="M324.004 256.012H260.004C255.58 256.012 252.004 259.588 252.004 264.012V384.012C252.004 388.436 255.58 392.012 260.004 392.012H324.004C328.428 392.012 332.004 388.436 332.004 384.012V264.012C332.004 259.588 328.428 256.012 324.004 256.012ZM316.004 376.012H268.004V272.012H316.004V376.012Z" fill="black"/>
<path d="M444.004 216.012H356.004C351.58 216.012 348.004 219.588 348.004 224.012V304.012C348.004 308.436 351.58 312.012 356.004 312.012H444.004C448.428 312.012 452.004 308.436 452.004 304.012V224.012C452.004 219.588 448.428 216.012 444.004 216.012ZM436.004 296.012H364.004V232.012H436.004V296.012Z" fill="black"/>
<path d="M228.004 216.012H153.244C148.82 216.012 145.244 219.588 145.244 224.012C145.244 228.436 148.82 232.012 153.244 232.012H220.004V296.012H188.004C183.58 296.012 180.004 299.588 180.004 304.012C180.004 308.436 183.58 312.012 188.004 312.012H228.004C232.428 312.012 236.004 308.436 236.004 304.012V224.012C236.004 219.588 232.428 216.012 228.004 216.012Z" fill="black"/>
<path d="M292.004 104.012C269.948 104.012 252.004 121.956 252.004 144.012C252.004 166.068 269.948 184.012 292.004 184.012C314.06 184.012 332.004 166.068 332.004 144.012C332.004 121.956 314.061 104.012 292.004 104.012ZM292.004 168.012C278.772 168.012 268.004 157.244 268.004 144.012C268.004 130.78 278.772 120.012 292.004 120.012C305.236 120.012 316.004 130.78 316.004 144.012C316.004 157.244 305.236 168.012 292.004 168.012Z" fill="black"/>
<path d="M292.004 104.012C287.58 104.012 284.004 107.588 284.004 112.012V176.012C284.004 180.436 287.58 184.012 292.004 184.012C296.428 184.012 300.004 180.436 300.004 176.012V112.012C300.004 107.588 296.428 104.012 292.004 104.012Z" fill="black"/>
<path d="M324.004 136.012H260.004C255.58 136.012 252.004 139.588 252.004 144.012C252.004 148.436 255.58 152.012 260.004 152.012H324.004C328.428 152.012 332.004 148.436 332.004 144.012C332.004 139.588 328.428 136.012 324.004 136.012Z" fill="black"/>
</g>
<defs>
<clipPath id="clip0">
<rect width="512.012" height="512.012" fill="white"/>
</clipPath>
</defs>
</svg>
