<svg width="435" height="435" viewBox="0 0 435 435" fill="none" xmlns="http://www.w3.org/2000/svg">
<g clip-path="url(#clip0)">
<path d="M426.055 10.321C420.687 4.95297 413.549 1.99597 405.957 1.99597C398.365 1.99597 391.227 4.95297 385.859 10.321L317.003 79.176C307.335 88.844 306.104 103.802 313.306 114.82L308.22 119.906C301.369 126.757 297.456 136.242 297.483 145.93C297.502 152.447 294.869 158.827 290.261 163.435L279.174 174.521C270.548 169.671 260.74 166.076 250.118 164.121C221.065 158.773 190.376 165.979 170.025 182.926C154.992 195.444 146.713 212.474 146.713 230.88V231.383H6C2.687 231.383 0 234.07 0 237.383V426.383C0 429.696 2.687 432.383 6 432.383H296C299.313 432.383 302 429.696 302 426.383V268.222C310.8 257.347 315.889 244.447 315.889 230.881C315.889 211.75 305.782 193.939 289.386 181.281L298.746 171.922C305.597 165.071 309.51 155.586 309.483 145.898C309.465 139.381 312.098 133.001 316.706 128.393L321.846 123.253C326.482 126.204 331.79 127.686 337.102 127.686C344.38 127.686 351.659 124.915 357.2 119.374L426.055 50.519C431.423 45.15 434.38 38.013 434.38 30.421C434.38 22.829 431.423 15.69 426.055 10.321ZM146.712 243.384V309.469C146.712 311.25 147.504 312.94 148.873 314.08C149.959 314.985 151.321 315.469 152.712 315.469C153.073 315.469 153.437 315.436 153.798 315.37L165 313.308V324.894C165 334.982 173.299 343.189 183.5 343.189C193.701 343.189 202 334.981 202 324.894V306.497L232 300.975V324.894C232 335.153 239.907 343.189 250 343.189C260.093 343.189 268 335.153 268 324.894V292.532C276.168 289.315 283.581 285.067 290 280.013V354.383H12V243.383H146.712V243.384ZM177 311.099L190 308.706V324.894C190 328.307 187.023 331.189 183.5 331.189C179.977 331.189 177 328.306 177 324.894V311.099ZM244 298.765L250.117 297.639C252.11 297.272 254.067 296.835 256 296.355V324.893C256 328.482 253.42 331.188 250 331.188C246.58 331.188 244 328.481 244 324.893V298.765ZM12 420.384V366.384H290V420.384H12ZM303.889 230.881C303.889 256.758 280.361 279.871 247.945 285.838L158.713 302.264V230.881C158.713 211.939 169.04 199.363 177.704 192.149C191.478 180.679 210.848 174.372 230.856 174.372C236.539 174.372 242.274 174.881 247.945 175.925C280.361 181.891 303.889 205.004 303.889 230.881ZM417.569 42.032L348.714 110.887C345.612 113.989 341.488 115.697 337.101 115.697C334.863 115.697 332.696 115.247 330.696 114.4L330.702 114.394C333.045 112.051 333.045 108.252 330.702 105.909C328.359 103.566 324.559 103.566 322.217 105.909L322.134 105.992C319.433 99.953 320.539 92.611 325.488 87.662L394.344 18.807C397.446 15.705 401.57 13.997 405.957 13.997C410.343 13.997 414.468 15.705 417.569 18.807C423.973 25.21 423.973 35.629 417.569 42.032Z" fill="black"/>
<path d="M49.4401 343.195C59.5341 343.195 67.7471 334.983 67.7471 324.888V277.419C67.7471 267.325 59.5351 259.112 49.4401 259.112C39.3451 259.112 31.1331 267.324 31.1331 277.419V324.888C31.1341 334.983 39.3461 343.195 49.4401 343.195ZM43.1341 277.419C43.1341 273.941 45.9631 271.112 49.4411 271.112C52.9191 271.112 55.7481 273.941 55.7481 277.419V324.888C55.7481 328.366 52.9191 331.195 49.4411 331.195C45.9631 331.195 43.1341 328.366 43.1341 324.888V277.419Z" fill="black"/>
<path d="M116.249 343.195C126.344 343.195 134.556 334.983 134.556 324.888V277.419C134.556 267.325 126.344 259.112 116.249 259.112C106.155 259.112 97.942 267.324 97.942 277.419V324.888C97.942 334.983 106.154 343.195 116.249 343.195ZM109.942 277.419C109.942 273.941 112.771 271.112 116.249 271.112C119.727 271.112 122.556 273.941 122.556 277.419V324.888C122.556 328.366 119.726 331.195 116.249 331.195C112.772 331.195 109.942 328.366 109.942 324.888V277.419Z" fill="black"/>
</g>
<defs>
<clipPath id="clip0">
<rect width="434.38" height="434.38" fill="white"/>
</clipPath>
</defs>
</svg>
