<svg width="480" height="480" viewBox="0 0 480 480" fill="none" xmlns="http://www.w3.org/2000/svg">
<path d="M444 352H396V296C395.952 256.256 363.744 224.048 324 224H260V211.624C279.942 198.329 291.943 175.967 292 152V128H300C313.219 128.033 323.963 117.344 323.996 104.124C324.022 93.813 317.441 84.644 307.664 81.368C304.171 35.516 265.985 0.072 220 0H204C158.015 0.072 119.829 35.516 116.336 81.368C103.801 85.568 97.044 99.133 101.244 111.668C104.52 121.445 113.689 128.026 124 128H132V152C132.054 175.968 144.056 198.331 164 211.624V224H100C60.256 224.048 28.048 256.256 28 296V416C28 420.418 31.582 424 36 424H92V472C92 476.418 95.582 480 100 480H388C392.418 480 396 476.418 396 472V425.064L401.752 430.048C404.758 432.65 409.218 432.65 412.224 430.048L425.496 418.576L438.768 430.048C439.164 430.337 439.587 430.586 440.032 430.792C440.362 431.025 440.709 431.231 441.072 431.408C442.002 431.79 442.995 431.991 444 432C445.102 431.996 446.192 431.765 447.2 431.32C447.407 431.194 447.607 431.058 447.8 430.912C448.561 430.521 449.253 430.007 449.848 429.392C449.904 429.32 450 429.304 450.056 429.232C450.266 428.922 450.451 428.596 450.608 428.256C450.931 427.792 451.199 427.293 451.408 426.768C451.59 426.234 451.714 425.681 451.776 425.12C451.878 424.753 451.953 424.378 452 424V360C452 355.582 448.418 352 444 352ZM332 240.568C359.535 244.581 379.965 268.174 380 296V320H332V240.568ZM332 336H380V352H332V336ZM276 240H316V352H276V240ZM180 20.184V48C180 52.418 183.582 56 188 56C192.418 56 196 52.418 196 48V16.488C198.655 16.176 201.326 16.013 204 16V56C204 60.418 207.582 64 212 64C216.418 64 220 60.418 220 56V16C222.674 16.013 225.345 16.176 228 16.488V48C228 52.418 231.582 56 236 56C240.418 56 244 52.418 244 48V20.184C269.975 29.404 288.43 52.615 291.56 80H132.44C135.57 52.615 154.025 29.404 180 20.184ZM124 112C119.582 112 116 108.418 116 104C116 99.582 119.582 96 124 96H300C304.418 96 308 99.582 308 104C308 108.418 304.418 112 300 112H124ZM148 152V128H276V152C275.989 172.014 265.288 190.498 247.936 200.472C239.462 205.427 229.817 208.026 220 208H204C194.156 208.021 184.488 205.402 176 200.416C158.681 190.445 148.004 171.984 148 152ZM244 219.896V240C244 257.673 229.673 272 212 272C194.327 272 180 257.673 180 240V219.88C181.488 220.416 183.016 220.848 184.544 221.28C184.856 221.368 185.152 221.48 185.456 221.6C188.132 222.29 190.846 222.824 193.584 223.2C194.24 223.296 194.888 223.376 195.544 223.448C198.349 223.801 201.173 223.985 204 224H220C222.824 223.981 225.645 223.796 228.448 223.448C229.112 223.368 229.768 223.288 230.424 223.192C233.146 222.813 235.843 222.279 238.504 221.592C238.856 221.496 239.2 221.368 239.552 221.264C241.048 220.848 242.544 220.416 244 219.896ZM164 240C164 266.51 185.49 288 212 288C238.51 288 260 266.51 260 240V352H212V344C212 339.582 208.418 336 204 336H164V240ZM156 352H196V432H156C151.582 432 148 428.418 148 424V422.992C149.086 422.671 150.155 422.292 151.2 421.856C151.68 421.68 152.184 421.552 152.656 421.352C154.416 420.592 156.103 419.674 157.696 418.608C158.04 418.376 158.336 418.088 158.672 417.848C159.886 416.976 161.04 416.025 162.128 415C162.608 414.528 163.032 414.016 163.488 413.52C164.344 412.611 165.145 411.652 165.888 410.648C166.312 410.056 166.688 409.448 167.088 408.832C167.733 407.801 168.315 406.733 168.832 405.632C169.144 404.976 169.456 404.328 169.728 403.648C170.198 402.412 170.591 401.148 170.904 399.864C171.064 399.24 171.264 398.648 171.384 398.016C172.195 394.057 172.195 389.975 171.384 386.016C171.264 385.384 171.064 384.792 170.904 384.168C170.591 382.884 170.198 381.62 169.728 380.384C169.456 379.704 169.144 379.056 168.832 378.4C168.315 377.299 167.733 376.231 167.088 375.2C166.704 374.584 166.288 373.976 165.888 373.384C165.145 372.38 164.344 371.421 163.488 370.512C163.032 370.016 162.608 369.504 162.128 369.032C161.04 368.007 159.886 367.056 158.672 366.184C158.336 365.944 158.04 365.656 157.696 365.424C156.103 364.358 154.416 363.44 152.656 362.68C152.184 362.48 151.68 362.352 151.2 362.176C150.155 361.74 149.086 361.361 148 361.04V360C148 355.582 151.582 352 156 352ZM108 240H148V337.472C138.445 340.85 132.042 349.866 132 360H108V240ZM44 296C44.035 268.174 64.465 244.581 92 240.568V320H44V296ZM44 408V336H92V368C92 372.418 95.582 376 100 376H140C148.837 376 156 383.163 156 392C156 400.837 148.837 408 140 408H44ZM316 424V464H108V424H132C132 437.255 142.745 448 156 448H204C208.418 448 212 444.418 212 440V425.528L217.208 430.04C220.215 432.647 224.681 432.647 227.688 430.04L240.888 418.592L254.104 430.04C257.111 432.647 261.577 432.647 264.584 430.04L277.792 418.592L291 430.04C294.007 432.647 298.473 432.647 301.48 430.04L314.696 418.592L316.888 420.496C316.324 421.579 316.02 422.779 316 424ZM380 464H332V431.8C334.289 432.185 336.63 431.541 338.4 430.04L351.616 418.584L364.8 430.048C367.807 432.655 372.273 432.655 375.28 430.048L380 425.952V464V464ZM436 406.512L430.72 401.952C427.716 399.355 423.26 399.355 420.256 401.952L406.992 413.424L393.752 401.952C390.745 399.345 386.279 399.345 383.272 401.952L370.04 413.416L356.8 401.952C353.793 399.345 349.327 399.345 346.32 401.952L333.12 413.4L319.936 401.952C316.929 399.345 312.463 399.345 309.456 401.952L296.24 413.408L283.032 401.96C280.024 399.349 275.552 399.349 272.544 401.96L259.344 413.408L246.128 401.96C243.121 399.353 238.655 399.353 235.648 401.96L222.448 413.408L212 404.352V368H436V406.512Z" fill="black"/>
</svg>
