<svg width="496" height="496" viewBox="0 0 496 496" fill="none" xmlns="http://www.w3.org/2000/svg">
<path d="M374 250.136L400.728 223.4L344.16 166.832L317.424 193.56C308.096 188.408 298.224 184.384 287.992 181.432V144.344C313.832 130.44 327.992 107.608 327.992 79.568C327.992 45.784 306.56 15.504 274.664 4.20801L264 0.432007V65.8L248 71.136L232 65.8V0.432007L221.328 4.20801C189.432 15.504 168 45.784 168 79.568C168 107.608 182.16 130.44 208 144.344V181.432C197.768 184.392 187.896 188.408 178.568 193.56L151.832 166.832L95.264 223.4L121.992 250.136C116.832 259.472 112.744 269.328 109.792 279.568H72V359.568H109.792C112.752 369.808 116.832 379.664 121.992 389L95.264 415.736L151.832 472.304L178.568 445.576C187.904 450.736 197.76 454.824 208 457.776V495.568H288V457.776C298.24 454.816 308.096 450.736 317.432 445.576L344.168 472.304L400.736 415.736L374.008 389C379.168 379.664 383.256 369.808 386.208 359.568H424V279.568H386.208C383.248 269.328 379.168 259.472 374 250.136ZM184 79.568C184 56.52 196.488 35.504 216 24.216V77.336L248 88L280 77.336V24.216C299.512 35.504 312 56.52 312 79.568C312 103.032 299.752 121.232 276.576 132.2L272 134.368V263.568H288V250.24C312.632 264.368 328 290.44 328 319.568C328 349.104 311.872 374.888 288 388.744V279.568H272V395.88C264.416 398.272 256.36 399.568 248 399.568C239.64 399.568 231.584 398.272 224 395.88V134.368L219.424 132.2C196.248 121.232 184 103.032 184 79.568ZM408 343.568H373.76L372.28 349.688C369.168 362.56 364.088 374.824 357.168 386.128L353.88 391.504L378.112 415.728L344.168 449.672L319.944 425.44L314.568 428.728C303.256 435.648 291 440.728 278.128 443.84L272 445.328V479.568H224V445.328L217.88 443.848C205.008 440.736 192.744 435.656 181.44 428.736L176.064 425.448L151.84 449.68L117.896 415.736L142.128 391.512L138.84 386.136C131.92 374.824 126.84 362.568 123.728 349.696L122.24 343.568H88V295.568H122.24L123.72 289.448C126.832 276.576 131.912 264.312 138.832 253.008L142.12 247.632L117.888 223.408L151.832 189.464L176.056 213.696L181.432 210.408C189.808 205.28 198.712 201.176 207.992 198.128V232.336C173.808 247.96 151.992 281.592 151.992 319.576C151.992 372.512 195.056 415.576 247.992 415.576C300.928 415.576 343.992 372.512 343.992 319.576C343.992 281.584 322.176 247.952 287.992 232.336V198.128C297.272 201.184 306.176 205.288 314.552 210.408L319.928 213.696L344.152 189.464L378.096 223.408L353.864 247.632L357.152 253.008C364.072 264.32 369.152 276.576 372.264 289.448L373.76 295.568H408V343.568ZM208 250.248V388.744C184.128 374.888 168 349.104 168 319.568C168 290.448 183.368 264.376 208 250.248Z" fill="black"/>
<path d="M32 393.04V103.568C32 99.16 35.592 95.568 40 95.568H105.472C108.784 104.856 117.584 111.568 128 111.568C141.232 111.568 152 100.8 152 87.568C152 74.336 141.232 63.568 128 63.568C117.584 63.568 108.784 70.28 105.472 79.568H40C26.768 79.568 16 90.336 16 103.568V393.04C6.712 396.352 0 405.152 0 415.568C0 428.8 10.768 439.568 24 439.568C37.232 439.568 48 428.8 48 415.568C48 405.152 41.288 396.352 32 393.04ZM128 79.568C132.408 79.568 136 83.16 136 87.568C136 91.976 132.408 95.568 128 95.568C123.592 95.568 120 91.976 120 87.568C120 83.16 123.592 79.568 128 79.568ZM24 423.568C19.592 423.568 16 419.976 16 415.568C16 411.16 19.592 407.568 24 407.568C28.408 407.568 32 411.16 32 415.568C32 419.976 28.408 423.568 24 423.568Z" fill="black"/>
<path d="M64 111.568H48V127.568H64V111.568Z" fill="black"/>
<path d="M64 143.568H48V159.568H64V143.568Z" fill="black"/>
<path d="M64 175.568H48V191.568H64V175.568Z" fill="black"/>
<path d="M480 393.04V103.568C480 90.336 469.232 79.568 456 79.568H390.528C387.216 70.28 378.416 63.568 368 63.568C354.768 63.568 344 74.336 344 87.568C344 100.8 354.768 111.568 368 111.568C378.416 111.568 387.216 104.856 390.528 95.568H456C460.408 95.568 464 99.16 464 103.568V393.04C454.712 396.352 448 405.152 448 415.568C448 428.8 458.768 439.568 472 439.568C485.232 439.568 496 428.8 496 415.568C496 405.152 489.288 396.352 480 393.04ZM368 95.568C363.592 95.568 360 91.976 360 87.568C360 83.16 363.592 79.568 368 79.568C372.408 79.568 376 83.16 376 87.568C376 91.976 372.408 95.568 368 95.568ZM472 423.568C467.592 423.568 464 419.976 464 415.568C464 411.16 467.592 407.568 472 407.568C476.408 407.568 480 411.16 480 415.568C480 419.976 476.408 423.568 472 423.568Z" fill="black"/>
<path d="M448 111.568H432V127.568H448V111.568Z" fill="black"/>
<path d="M448 143.568H432V159.568H448V143.568Z" fill="black"/>
<path d="M448 175.568H432V191.568H448V175.568Z" fill="black"/>
<path d="M256 367.568H240V383.568H256V367.568Z" fill="black"/>
<path d="M256 335.568H240V351.568H256V335.568Z" fill="black"/>
<path d="M256 303.568H240V319.568H256V303.568Z" fill="black"/>
</svg>
