<svg width="512" height="512" viewBox="0 0 512 512" fill="none" xmlns="http://www.w3.org/2000/svg">
<path d="M356 429C350.48 429 346 433.48 346 439C346 444.52 350.48 449 356 449C361.52 449 366 444.52 366 439C366 433.48 361.52 429 356 429Z" fill="black"/>
<path d="M156 429C150.48 429 146 433.48 146 439C146 444.52 150.48 449 156 449C161.52 449 166 444.52 166 439C166 433.48 161.52 429 156 429Z" fill="black"/>
<path d="M447.645 377.21C436.388 359.786 420.919 345.941 402.798 337C401.27 335.581 399.305 334.63 397.12 334.387C384.013 328.823 370.197 326 356 326H326V299.617C343.361 284.721 355.842 264.991 361.894 243H366C388.056 243 406 225.056 406 203C406 192.548 401.966 183.024 395.378 175.89C396.007 175.356 396.621 174.8 397.211 174.211C402.879 168.543 406 161.01 406 153C406 139.837 397.474 128.634 385.657 124.604C382.124 78.62 349.851 39.324 305.416 27.008C302.783 13.256 291.434 0 276 0H236C220.566 0 209.217 13.256 206.584 27.008C162.153 39.323 129.883 78.612 126.344 124.59C122.042 126.049 118.097 128.482 114.789 131.789C109.121 137.457 106 144.99 106 153C106 162.163 110.134 170.375 116.63 175.882C110.038 183.016 106 192.544 106 203C106 225.056 123.944 243 146 243H150.078C155.13 261.357 164.709 278.21 178.072 292.131C180.583 294.749 183.245 297.243 186 299.609V326H156C141.802 326 127.986 328.823 114.88 334.386C112.696 334.63 110.73 335.58 109.203 336.999C91.08 345.941 75.612 359.786 64.355 377.209C52.347 395.796 46 417.163 46 439V502C46 507.522 50.477 512 56 512H456C461.523 512 466 507.522 466 502V439C466 417.163 459.653 395.796 447.645 377.21ZM106 492H66V439C66 408.583 81.582 379.429 106 362.122V492ZM366 223H365.544C365.842 219.673 366 216.334 366 213V183C377.028 183 386 191.972 386 203C386 214.028 377.028 223 366 223ZM206 48.139V93C206 98.523 210.477 103 216 103C221.523 103 226 98.523 226 93V35.063C226 35.037 226 35.011 226 34.985V33C226 26.804 231.234 20 236 20H276C280.766 20 286 26.804 286 33V34.985C286 35.011 286 35.037 286 35.063V93C286 98.523 290.477 103 296 103C301.523 103 306 98.523 306 93V48.139C338.29 59.566 361.6 88.786 365.441 123H146.559C150.4 88.786 173.71 59.566 206 48.139ZM146 223C134.972 223 126 214.028 126 203C126 191.972 134.972 183 146 183V213C146 216.334 146.158 219.674 146.456 223H146ZM146 163H136C130.486 163 126 158.514 126 153C126 150.332 127.041 147.821 128.931 145.932C130.822 144.041 133.332 143 136 143H376C381.514 143 386 147.486 386 153C386 155.668 384.959 158.179 383.069 160.068C381.179 161.959 378.668 163 376 163H366H356H156H146ZM167.817 231.183C167.797 231.074 167.778 230.966 167.754 230.859C166.593 224.99 166 218.983 166 213V183H346V213C346 218.978 345.407 224.981 344.246 230.855C344.222 230.963 344.203 231.072 344.183 231.181C339.714 253.488 327.346 273.456 309.336 287.422C293.69 299.576 275.247 306 256 306C236.753 306 218.31 299.576 202.649 287.411C199.064 284.637 195.652 281.568 192.504 278.285C179.889 265.143 171.357 248.862 167.817 231.183ZM246 492H166V469C166 463.477 161.523 459 156 459C150.477 459 146 463.477 146 469V492H126V351.474C132.49 349.027 139.176 347.396 146 346.592V409C146 414.523 150.477 419 156 419C161.523 419 166 414.523 166 409V346H191.715L246 403V492ZM206 332V313.374C221.431 321.669 238.427 326 256 326C273.574 326 290.571 321.668 306 313.375V332L256 384.5L206 332ZM386 492H366V469C366 463.477 361.523 459 356 459C350.477 459 346 463.477 346 469V492H266V403L320.285 346H346V409C346 414.523 350.477 419 356 419C361.523 419 366 414.523 366 409V346.592C372.824 347.396 379.509 349.028 386 351.475V492ZM446 492H406V362.121C430.418 379.428 446 408.582 446 439V492Z" fill="black"/>
</svg>
