<svg width="496" height="496" viewBox="0 0 496 496" fill="none" xmlns="http://www.w3.org/2000/svg">
<path d="M414.56 319.488L352 305.584V285.816C376.176 268.368 392 240.024 392 208V165.352C393.656 163.712 395.216 161.96 396.552 160H408H416H432V144H416V128C416 70.76 374.664 21.328 318.952 10.472C316.696 4.376 310.872 0 304 0H288C281.128 0 275.304 4.376 273.048 10.472C217.336 21.328 176 70.76 176 128V144H160V160H176H184H195.448C196.792 161.96 198.344 163.72 200 165.36V208C200 240.024 215.824 268.368 240 285.816V305.584L177.44 319.488C129.488 330.144 96 371.888 96 421.008V496H496V421.008C496 371.888 462.512 330.144 414.56 319.488ZM176 480H112V421.008C112 381.152 138.088 347.104 176 336.416V480ZM355.872 322.832L325.992 362.68L304.176 340.864L345.04 320.432L355.872 322.832ZM296 327.056L256 307.056V295.16C268.192 300.776 281.712 304 296 304C310.288 304 323.808 300.776 336 295.16V307.056L296 327.056ZM207.152 148.424L204.944 144H192V128C192 79.8 225.8 37.896 272 26.936V64H288V16H304V64H320V26.936C366.2 37.896 400 79.8 400 128V144H387.056L384.848 148.424C381.272 155.56 374.096 160 366.112 160H225.888C217.896 160 210.72 155.568 207.152 148.424ZM216 174.624C219.168 175.504 222.48 176 225.888 176H366.104C369.512 176 372.824 175.496 375.992 174.624V203.056L365.304 208.4C355.368 213.368 344.232 216 333.12 216H320C318.664 216 317.488 215.144 317.064 213.88L314.12 205.048C311.504 197.248 304.224 192 296 192C287.776 192 280.496 197.248 277.872 205.064L274.944 213.872C274.512 215.144 273.336 216 272 216H258.88C247.76 216 236.632 213.368 226.688 208.4L216 203.056V174.624ZM217.24 221.568L219.528 222.712C231.688 228.792 245.296 232 258.88 232H272C280.224 232 287.504 226.752 290.128 218.936L293.056 210.128C293.912 207.584 298.096 207.592 298.936 210.12L301.88 218.952C304.496 226.752 311.776 232 320 232H333.12C346.704 232 360.312 228.792 372.472 222.712L374.76 221.568C368.288 259.224 335.48 288 296 288C256.52 288 223.712 259.224 217.24 221.568ZM246.96 320.424L287.824 340.856L266.008 362.672L236.128 322.824L246.96 320.424ZM288 480H192V464H288V480ZM288 448H192V332.64L218.984 326.648L288 418.664V448ZM275.704 375.6L296 355.312L316.296 375.608L296 402.664L275.704 375.6ZM400 480H304V464H400V480ZM400 448H304V418.664L373.016 326.64L400 332.64V448ZM480 480H416V336.416C453.912 347.104 480 381.16 480 421.008V480Z" fill="black"/>
<path d="M376 128H327.792C332.872 121.296 336 113.04 336 104C336 81.944 318.056 64 296 64C273.944 64 256 81.944 256 104C256 113.04 259.128 121.296 264.208 128H216V144H376V128ZM296 128C282.768 128 272 117.232 272 104C272 90.768 282.768 80 296 80C309.232 80 320 90.768 320 104C320 117.232 309.232 128 296 128Z" fill="black"/>
<path d="M384 416H320V432H384V416Z" fill="black"/>
<path d="M120 248V246.648C120 240.84 118.424 235.144 115.44 230.184L88 184.448L60.56 230.176C57.576 235.152 56 240.84 56 246.648V248C56 265.648 70.352 280 88 280C105.648 280 120 265.648 120 248ZM72 248V246.648C72 243.744 72.792 240.904 74.28 238.416L88 215.552L101.72 238.424C103.208 240.904 104 243.744 104 246.648V248C104 256.824 96.824 264 88 264C79.176 264 72 256.824 72 248Z" fill="black"/>
<path d="M112 328V307.824C114.384 306.984 116.712 306.016 118.984 304.936L133.256 319.2L167.192 285.256L152.928 270.984C154.008 268.712 154.976 266.376 155.816 264H176V216H155.824C154.984 213.624 154.008 211.288 152.936 209.016L167.2 194.744L133.264 160.8L118.992 175.064C116.72 173.984 114.392 173.016 112.008 172.176V152H64V172.176C61.616 173.016 59.288 173.984 57.016 175.064L42.744 160.8L8.808 194.744L23.072 209.016C21.992 211.288 21.024 213.624 20.176 216H0V264H20.176C21.016 266.376 21.992 268.712 23.064 270.984L8.8 285.256L42.736 319.2L57.008 304.936C59.288 306.008 61.616 306.976 64 307.824V328H112ZM59.608 288.2L54.264 285.04L42.744 296.56L31.432 285.24L42.952 273.72L39.8 268.384C37.152 263.904 35.144 259.056 33.832 253.984L32.288 248H16V232H32.288L33.832 226C35.144 220.928 37.152 216.08 39.8 211.6L42.952 206.264L31.432 194.744L42.744 183.424L54.264 194.944L59.608 191.784C64.08 189.144 68.92 187.144 74 185.832L80 184.296V168H96V184.296L102 185.84C107.08 187.152 111.92 189.152 116.392 191.792L121.736 194.952L133.256 183.432L144.568 194.752L133.048 206.272L136.2 211.608C138.848 216.088 140.856 220.936 142.168 226.008L143.712 232H160V248H143.712L142.168 254C140.856 259.072 138.848 263.92 136.2 268.4L133.048 273.736L144.568 285.256L133.256 296.576L121.736 285.056L116.392 288.216C111.92 290.856 107.08 292.856 102 294.168L96 295.704V312H80V295.704L74 294.16C68.92 292.84 64.08 290.84 59.608 288.2Z" fill="black"/>
</svg>
