<svg width="512" height="512" viewBox="0 0 512 512" fill="none" xmlns="http://www.w3.org/2000/svg">
<g clip-path="url(#clip0)">
<path d="M305.965 284.907C302.719 281.66 297.454 281.66 294.207 284.907C278.872 300.242 253.919 300.242 238.583 284.907C235.336 281.66 230.071 281.66 226.825 284.907C223.578 288.154 223.578 293.419 226.825 296.665C237.735 307.575 252.065 313.029 266.395 313.029C280.725 313.029 295.056 307.575 305.965 296.665C309.212 293.418 309.212 288.153 305.965 284.907Z" fill="black"/>
<path d="M217.043 214.016C212.451 214.016 208.728 217.739 208.728 222.331V235.63C208.728 240.222 212.451 243.945 217.043 243.945C221.635 243.945 225.358 240.222 225.358 235.63V222.33C225.358 217.738 221.635 214.016 217.043 214.016Z" fill="black"/>
<path d="M315.748 214.016C311.156 214.016 307.433 217.739 307.433 222.331V235.63C307.433 240.222 311.156 243.945 315.748 243.945C320.34 243.945 324.063 240.222 324.063 235.63V222.33C324.062 217.738 320.341 214.016 315.748 214.016Z" fill="black"/>
<path d="M361.941 339.388C358.015 337.006 352.901 338.256 350.519 342.181C348.137 346.107 349.387 351.22 353.312 353.603C369.349 363.339 378.923 380.326 378.923 399.044V495.371H274.713V405.134L310.923 430.858C312.352 431.874 314.038 432.395 315.739 432.395C316.8 432.395 317.866 432.192 318.879 431.78C321.513 430.706 323.415 428.359 323.921 425.559L333.79 370.915C334.606 366.396 331.605 362.07 327.086 361.256C322.563 360.437 318.241 363.441 317.427 367.96L309.884 409.721L271.216 382.25C268.333 380.201 264.468 380.201 261.584 382.25L222.917 409.721L215.374 367.96C214.558 363.441 210.232 360.439 205.715 361.256C201.196 362.072 198.194 366.397 199.011 370.915L208.88 425.559C209.385 428.359 211.288 430.706 213.922 431.78C216.556 432.853 219.557 432.506 221.877 430.859L258.085 405.135V495.372H153.875V399.045C153.875 380.324 163.446 363.337 179.475 353.604C183.401 351.22 184.65 346.106 182.268 342.182C179.886 338.256 174.772 337.006 170.846 339.389C149.807 352.162 137.246 374.463 137.246 399.045V503.687C137.246 508.279 140.969 512.002 145.561 512.002H387.239C391.831 512.002 395.554 508.279 395.554 503.687V399.043C395.552 374.466 382.987 352.166 361.941 339.388Z" fill="black"/>
<path d="M279.145 215.093C274.553 215.093 270.83 218.816 270.83 223.408V249.491C270.83 251.937 268.841 253.925 266.396 253.925C263.95 253.925 261.961 251.936 261.961 249.491V223.408C261.961 218.816 258.238 215.093 253.646 215.093C249.054 215.093 245.331 218.816 245.331 223.408V249.491C245.331 261.106 254.781 270.555 266.395 270.555C278.01 270.555 287.459 261.106 287.459 249.491V223.408C287.459 218.816 283.736 215.093 279.145 215.093Z" fill="black"/>
<path d="M416.262 214.93C416.262 197.352 402.918 182.836 385.824 180.961L385.157 174.05H392.008C394.5 174.05 396.86 172.933 398.44 171.005C400.019 169.077 400.651 166.544 400.161 164.099L393.487 130.841C392.708 126.958 389.296 124.163 385.334 124.163H383.612C382.173 103.603 375.416 83.911 363.838 66.773C361.268 62.968 356.1 61.968 352.293 64.538C348.488 67.109 347.487 72.277 350.058 76.083C359.772 90.461 365.538 106.937 366.942 124.164H297.433V36.457C307.994 39.854 317.866 44.966 326.881 51.73C328.378 52.853 330.128 53.394 331.865 53.394C334.391 53.394 336.888 52.246 338.522 50.069C341.278 46.396 340.534 41.185 336.861 38.429C324.918 29.467 311.68 22.989 297.433 19.114V8.315C297.433 3.723 293.71 0 289.118 0H243.665C239.073 0 235.35 3.723 235.35 8.315V19.145C212.014 25.541 190.943 39.16 175.478 58.022C160.088 76.793 150.928 100.015 149.204 124.163H147.446C143.484 124.163 140.071 126.959 139.293 130.845L132.63 164.103C132.141 166.546 132.772 169.08 134.352 171.006C135.931 172.933 138.291 174.05 140.783 174.05H147.635L146.968 180.959C129.872 182.826 116.524 197.345 116.524 214.929C116.525 230.313 126.617 243.343 140.672 247.622C140.252 257.227 141.317 266.784 143.877 276.1C149.408 296.181 161.736 313.984 178.59 326.226L224.099 359.296C236.748 368.489 251.569 373.084 266.397 373.083C281.221 373.082 296.052 368.487 308.706 359.296L354.211 326.227C371.135 313.938 383.485 296.041 388.988 275.831C391.501 266.593 392.543 257.123 392.122 247.617C406.176 243.332 416.262 230.307 416.262 214.93ZM142.206 230.292C136.793 227.3 133.156 221.544 133.156 214.93C133.156 207.139 138.263 200.526 145.302 198.241L142.206 230.292ZM251.984 25.73C251.985 25.658 251.985 25.586 251.984 25.513V16.63H280.808V124.163H251.984V25.73V25.73ZM235.354 36.489V124.163H165.862C169.234 83.75 196.947 48.925 235.354 36.489ZM157.555 244.348L164.345 174.05H173.646V241.004L157.424 257.232C157.107 252.958 157.139 248.655 157.555 244.348ZM344.441 312.773L298.935 345.842C279.472 359.977 253.328 359.977 233.877 345.843L188.367 312.772C175.967 303.764 166.571 291.082 161.495 276.681L187.841 250.325C189.4 248.766 190.276 246.652 190.276 244.447V174.05H212.215L217.505 195.448C218.423 199.16 221.753 201.767 225.577 201.767H307.214C311.038 201.767 314.368 199.16 315.286 195.448L320.576 174.05H343.453V244.447C343.453 246.652 344.329 248.766 345.888 250.325L371.541 275.988C366.521 290.69 357.034 303.629 344.441 312.773ZM229.347 174.052H303.446L300.706 185.138H232.088L229.347 174.052ZM375.433 256.36L360.082 241.003V174.05H368.451L375.242 244.354C375.633 248.365 375.683 252.374 375.433 256.36ZM150.932 157.421L154.263 140.792H378.523L381.86 157.421H150.932ZM390.59 230.287L387.495 198.247C394.531 200.535 399.634 207.145 399.634 214.931C399.634 221.54 396.001 227.294 390.59 230.287Z" fill="black"/>
<path d="M354.534 446.771H319.058C314.466 446.771 310.743 450.494 310.743 455.086C310.743 459.678 314.466 463.401 319.058 463.401H354.534C359.126 463.401 362.849 459.678 362.849 455.086C362.848 450.494 359.126 446.771 354.534 446.771Z" fill="black"/>
<path d="M213.74 446.771H178.264C173.672 446.771 169.949 450.494 169.949 455.086C169.949 459.678 173.672 463.401 178.264 463.401H213.74C218.332 463.401 222.055 459.678 222.055 455.086C222.054 450.494 218.332 446.771 213.74 446.771Z" fill="black"/>
<path d="M503.241 297.011L491.178 276.117C488.881 272.139 483.796 270.777 479.82 273.074C475.843 275.37 474.481 280.455 476.777 284.432L488.84 305.326C492.792 312.173 492.793 320.348 488.84 327.195C484.887 334.042 477.807 338.129 469.902 338.129H458.054V309.859C458.054 305.267 454.331 301.544 449.739 301.544C445.147 301.544 441.424 305.267 441.424 309.859V338.127H429.575C421.669 338.127 414.59 334.04 410.637 327.193C406.684 320.346 406.685 312.171 410.637 305.324L449.738 237.599L463.572 261.56C465.868 265.538 470.954 266.9 474.93 264.603C478.907 262.307 480.269 257.222 477.973 253.245L456.938 216.813C455.452 214.241 452.709 212.656 449.738 212.656C446.767 212.656 444.023 214.241 442.538 216.813L396.237 297.01C389.278 309.063 389.278 323.455 396.237 335.508C403.196 347.561 415.66 354.757 429.577 354.757H441.426V387.5C433.859 390.739 428.541 398.257 428.541 406.996V466.59C428.541 478.279 438.051 487.79 449.741 487.79C461.431 487.79 470.941 478.28 470.941 466.59V406.996C470.941 398.257 465.624 390.739 458.056 387.5V354.756H469.904C483.822 354.756 496.286 347.56 503.245 335.507C510.201 323.455 510.201 309.063 503.241 297.011ZM454.31 466.59C454.31 469.11 452.26 471.161 449.739 471.161C447.218 471.161 445.168 469.111 445.168 466.59V406.996C445.168 404.476 447.218 402.426 449.739 402.426C452.26 402.426 454.31 404.476 454.31 406.996V466.59Z" fill="black"/>
<path d="M139.48 345.882L129.133 272.118C129.113 271.973 129.08 271.831 129.052 271.688C128.324 257.908 118.219 246.5 104.45 244.261L103.927 244.176C99.203 243.408 95.774 239.377 95.774 234.591V169.288C95.774 155.93 84.907 145.064 71.55 145.064C58.192 145.064 47.326 155.931 47.326 169.288V234.591C47.326 239.377 43.897 243.408 39.172 244.176L38.652 244.26C24.88 246.501 14.774 257.91 14.047 271.692C14.019 271.834 13.987 271.974 13.967 272.118L3.61999 345.881C3.28499 348.265 3.99999 350.676 5.57999 352.492C7.15899 354.308 9.44799 355.351 11.855 355.351H40.926C45.518 355.351 49.241 351.628 49.241 347.036C49.241 342.444 45.518 338.721 40.926 338.721H21.414L29.429 281.587H113.668L121.682 338.722H68.64C64.048 338.722 60.325 342.445 60.325 347.037C60.325 351.629 64.048 355.352 68.64 355.352H131.247C133.654 355.352 135.942 354.31 137.522 352.493C139.102 350.676 139.815 348.266 139.48 345.882ZM33.663 264.959C35.564 262.741 38.233 261.176 41.321 260.674L41.841 260.59C54.653 258.506 63.953 247.572 63.953 234.591V169.288C63.953 165.1 67.36 161.693 71.548 161.693C75.736 161.693 79.143 165.1 79.143 169.288V234.591C79.143 247.572 88.443 258.506 101.253 260.589L101.776 260.674C104.865 261.176 107.532 262.739 109.432 264.959H33.663Z" fill="black"/>
</g>
<defs>
<clipPath id="clip0">
<rect width="512" height="512" fill="white"/>
</clipPath>
</defs>
</svg>
